{
	"asset":{
		"generator":"Khronos glTF Blender I/O v4.0.44",
		"version":"2.0"
	},
	"extensionsUsed":[
		"KHR_materials_specular",
		"KHR_materials_ior"
	],
	"scene":0,
	"scenes":[
		{
			"name":"Scene",
			"nodes":[
				0
			]
		}
	],
	"nodes":[
		{
			"mesh":0,
			"name":"texturedMesh",
			"rotation":[
				0.3826834559440613,
				0,
				0,
				0.9238795638084412
			],
			"translation":[
				0,
				2.119999885559082,
				-0.019999999552965164
			]
		}
	],
	"materials":[
		{
			"doubleSided":true,
			"extensions":{
				"KHR_materials_specular":{
					"specularFactor":0
				},
				"KHR_materials_ior":{
					"ior":1.4500000476837158
				}
			},
			"name":"1001",
			"pbrMetallicRoughness":{
				"baseColorTexture":{
					"index":0
				},
				"metallicFactor":0
			}
		},
		{
			"doubleSided":true,
			"extensions":{
				"KHR_materials_specular":{
					"specularFactor":0
				},
				"KHR_materials_ior":{
					"ior":1.4500000476837158
				}
			},
			"name":"1002",
			"pbrMetallicRoughness":{
				"baseColorTexture":{
					"index":1
				},
				"metallicFactor":0
			}
		},
		{
			"doubleSided":true,
			"extensions":{
				"KHR_materials_specular":{
					"specularFactor":0
				},
				"KHR_materials_ior":{
					"ior":1.4500000476837158
				}
			},
			"name":"1003",
			"pbrMetallicRoughness":{
				"baseColorTexture":{
					"index":2
				},
				"metallicFactor":0
			}
		},
		{
			"doubleSided":true,
			"extensions":{
				"KHR_materials_specular":{
					"specularFactor":0
				},
				"KHR_materials_ior":{
					"ior":1.4500000476837158
				}
			},
			"name":"1004",
			"pbrMetallicRoughness":{
				"baseColorTexture":{
					"index":3
				},
				"metallicFactor":0
			}
		},
		{
			"doubleSided":true,
			"extensions":{
				"KHR_materials_specular":{
					"specularFactor":0
				},
				"KHR_materials_ior":{
					"ior":1.4500000476837158
				}
			},
			"name":"1005",
			"pbrMetallicRoughness":{
				"baseColorTexture":{
					"index":4
				},
				"metallicFactor":0
			}
		},
		{
			"doubleSided":true,
			"extensions":{
				"KHR_materials_specular":{
					"specularFactor":0
				},
				"KHR_materials_ior":{
					"ior":1.4500000476837158
				}
			},
			"name":"1006",
			"pbrMetallicRoughness":{
				"baseColorTexture":{
					"index":5
				},
				"metallicFactor":0
			}
		},
		{
			"doubleSided":true,
			"extensions":{
				"KHR_materials_specular":{
					"specularFactor":0
				},
				"KHR_materials_ior":{
					"ior":1.4500000476837158
				}
			},
			"name":"1007",
			"pbrMetallicRoughness":{
				"baseColorTexture":{
					"index":6
				},
				"metallicFactor":0
			}
		}
	],
	"meshes":[
		{
			"name":"texturedMesh",
			"primitives":[
				{
					"attributes":{
						"POSITION":0,
						"NORMAL":1,
						"TEXCOORD_0":2
					},
					"indices":3,
					"material":0
				},
				{
					"attributes":{
						"POSITION":4,
						"NORMAL":5,
						"TEXCOORD_0":6
					},
					"indices":7,
					"material":1
				},
				{
					"attributes":{
						"POSITION":8,
						"NORMAL":9,
						"TEXCOORD_0":10
					},
					"indices":11,
					"material":2
				},
				{
					"attributes":{
						"POSITION":12,
						"NORMAL":13,
						"TEXCOORD_0":14
					},
					"indices":15,
					"material":3
				},
				{
					"attributes":{
						"POSITION":16,
						"NORMAL":17,
						"TEXCOORD_0":18
					},
					"indices":19,
					"material":4
				},
				{
					"attributes":{
						"POSITION":20,
						"NORMAL":21,
						"TEXCOORD_0":22
					},
					"indices":23,
					"material":5
				},
				{
					"attributes":{
						"POSITION":24,
						"NORMAL":25,
						"TEXCOORD_0":26
					},
					"indices":27,
					"material":6
				}
			]
		}
	],
	"textures":[
		{
			"sampler":0,
			"source":0
		},
		{
			"sampler":0,
			"source":1
		},
		{
			"sampler":0,
			"source":2
		},
		{
			"sampler":0,
			"source":3
		},
		{
			"sampler":0,
			"source":4
		},
		{
			"sampler":0,
			"source":5
		},
		{
			"sampler":0,
			"source":6
		}
	],
	"images":[
		{
			"mimeType":"image/png",
			"name":"texture_1001",
			"uri":"texture_1001.png"
		},
		{
			"mimeType":"image/png",
			"name":"texture_1002",
			"uri":"texture_1002.png"
		},
		{
			"mimeType":"image/png",
			"name":"texture_1003",
			"uri":"texture_1003.png"
		},
		{
			"mimeType":"image/png",
			"name":"texture_1004",
			"uri":"texture_1004.png"
		},
		{
			"mimeType":"image/png",
			"name":"texture_1005",
			"uri":"texture_1005.png"
		},
		{
			"mimeType":"image/png",
			"name":"texture_1006",
			"uri":"texture_1006.png"
		},
		{
			"mimeType":"image/png",
			"name":"texture_1007",
			"uri":"texture_1007.png"
		}
	],
	"accessors":[
		{
			"bufferView":0,
			"componentType":5126,
			"count":152657,
			"max":[
				2.897878408432007,
				-1.422122597694397,
				1.4807038307189941
			],
			"min":[
				-4.343398094177246,
				-6.795682907104492,
				-4.0173444747924805
			],
			"type":"VEC3"
		},
		{
			"bufferView":1,
			"componentType":5126,
			"count":152657,
			"type":"VEC3"
		},
		{
			"bufferView":2,
			"componentType":5126,
			"count":152657,
			"type":"VEC2"
		},
		{
			"bufferView":3,
			"componentType":5125,
			"count":152673,
			"type":"SCALAR"
		},
		{
			"bufferView":4,
			"componentType":5126,
			"count":108549,
			"max":[
				2.7903425693511963,
				-1.4259141683578491,
				1.4823509454727173
			],
			"min":[
				-4.1611433029174805,
				-6.825232028961182,
				-3.64359450340271
			],
			"type":"VEC3"
		},
		{
			"bufferView":5,
			"componentType":5126,
			"count":108549,
			"type":"VEC3"
		},
		{
			"bufferView":6,
			"componentType":5126,
			"count":108549,
			"type":"VEC2"
		},
		{
			"bufferView":7,
			"componentType":5125,
			"count":108567,
			"type":"SCALAR"
		},
		{
			"bufferView":8,
			"componentType":5126,
			"count":215157,
			"max":[
				2.9209461212158203,
				-1.4249237775802612,
				1.4799894094467163
			],
			"min":[
				-4.374014377593994,
				-6.855325222015381,
				-4.046304225921631
			],
			"type":"VEC3"
		},
		{
			"bufferView":9,
			"componentType":5126,
			"count":215157,
			"type":"VEC3"
		},
		{
			"bufferView":10,
			"componentType":5126,
			"count":215157,
			"type":"VEC2"
		},
		{
			"bufferView":11,
			"componentType":5125,
			"count":215217,
			"type":"SCALAR"
		},
		{
			"bufferView":12,
			"componentType":5126,
			"count":129543,
			"max":[
				2.9239234924316406,
				-1.4263290166854858,
				1.3469384908676147
			],
			"min":[
				-4.5178117752075195,
				-6.797510623931885,
				-3.888806104660034
			],
			"type":"VEC3"
		},
		{
			"bufferView":13,
			"componentType":5126,
			"count":129543,
			"type":"VEC3"
		},
		{
			"bufferView":14,
			"componentType":5126,
			"count":129543,
			"type":"VEC2"
		},
		{
			"bufferView":15,
			"componentType":5125,
			"count":129567,
			"type":"SCALAR"
		},
		{
			"bufferView":16,
			"componentType":5126,
			"count":168993,
			"max":[
				2.9239234924316406,
				-1.4426889419555664,
				1.6865681409835815
			],
			"min":[
				-4.516399383544922,
				-6.819238185882568,
				-3.6813831329345703
			],
			"type":"VEC3"
		},
		{
			"bufferView":17,
			"componentType":5126,
			"count":168993,
			"type":"VEC3"
		},
		{
			"bufferView":18,
			"componentType":5126,
			"count":168993,
			"type":"VEC2"
		},
		{
			"bufferView":19,
			"componentType":5125,
			"count":169029,
			"type":"SCALAR"
		},
		{
			"bufferView":20,
			"componentType":5126,
			"count":196148,
			"max":[
				2.92193865776062,
				-1.4237614870071411,
				1.5808076858520508
			],
			"min":[
				-4.436652183532715,
				-6.7386579513549805,
				-3.9976258277893066
			],
			"type":"VEC3"
		},
		{
			"bufferView":21,
			"componentType":5126,
			"count":196148,
			"type":"VEC3"
		},
		{
			"bufferView":22,
			"componentType":5126,
			"count":196148,
			"type":"VEC2"
		},
		{
			"bufferView":23,
			"componentType":5125,
			"count":196206,
			"type":"SCALAR"
		},
		{
			"bufferView":24,
			"componentType":5126,
			"count":98507,
			"max":[
				2.9209461212158203,
				-1.4267717599868774,
				1.4816197156906128
			],
			"min":[
				-4.361339569091797,
				-6.727782726287842,
				-4.04201602935791
			],
			"type":"VEC3"
		},
		{
			"bufferView":25,
			"componentType":5126,
			"count":98507,
			"type":"VEC3"
		},
		{
			"bufferView":26,
			"componentType":5126,
			"count":98507,
			"type":"VEC2"
		},
		{
			"bufferView":27,
			"componentType":5125,
			"count":98529,
			"type":"SCALAR"
		}
	],
	"bufferViews":[
		{
			"buffer":0,
			"byteLength":1831884,
			"byteOffset":0,
			"target":34962
		},
		{
			"buffer":0,
			"byteLength":1831884,
			"byteOffset":1831884,
			"target":34962
		},
		{
			"buffer":0,
			"byteLength":1221256,
			"byteOffset":3663768,
			"target":34962
		},
		{
			"buffer":0,
			"byteLength":610692,
			"byteOffset":4885024,
			"target":34963
		},
		{
			"buffer":0,
			"byteLength":1302588,
			"byteOffset":5495716,
			"target":34962
		},
		{
			"buffer":0,
			"byteLength":1302588,
			"byteOffset":6798304,
			"target":34962
		},
		{
			"buffer":0,
			"byteLength":868392,
			"byteOffset":8100892,
			"target":34962
		},
		{
			"buffer":0,
			"byteLength":434268,
			"byteOffset":8969284,
			"target":34963
		},
		{
			"buffer":0,
			"byteLength":2581884,
			"byteOffset":9403552,
			"target":34962
		},
		{
			"buffer":0,
			"byteLength":2581884,
			"byteOffset":11985436,
			"target":34962
		},
		{
			"buffer":0,
			"byteLength":1721256,
			"byteOffset":14567320,
			"target":34962
		},
		{
			"buffer":0,
			"byteLength":860868,
			"byteOffset":16288576,
			"target":34963
		},
		{
			"buffer":0,
			"byteLength":1554516,
			"byteOffset":17149444,
			"target":34962
		},
		{
			"buffer":0,
			"byteLength":1554516,
			"byteOffset":18703960,
			"target":34962
		},
		{
			"buffer":0,
			"byteLength":1036344,
			"byteOffset":20258476,
			"target":34962
		},
		{
			"buffer":0,
			"byteLength":518268,
			"byteOffset":21294820,
			"target":34963
		},
		{
			"buffer":0,
			"byteLength":2027916,
			"byteOffset":21813088,
			"target":34962
		},
		{
			"buffer":0,
			"byteLength":2027916,
			"byteOffset":23841004,
			"target":34962
		},
		{
			"buffer":0,
			"byteLength":1351944,
			"byteOffset":25868920,
			"target":34962
		},
		{
			"buffer":0,
			"byteLength":676116,
			"byteOffset":27220864,
			"target":34963
		},
		{
			"buffer":0,
			"byteLength":2353776,
			"byteOffset":27896980,
			"target":34962
		},
		{
			"buffer":0,
			"byteLength":2353776,
			"byteOffset":30250756,
			"target":34962
		},
		{
			"buffer":0,
			"byteLength":1569184,
			"byteOffset":32604532,
			"target":34962
		},
		{
			"buffer":0,
			"byteLength":784824,
			"byteOffset":34173716,
			"target":34963
		},
		{
			"buffer":0,
			"byteLength":1182084,
			"byteOffset":34958540,
			"target":34962
		},
		{
			"buffer":0,
			"byteLength":1182084,
			"byteOffset":36140624,
			"target":34962
		},
		{
			"buffer":0,
			"byteLength":788056,
			"byteOffset":37322708,
			"target":34962
		},
		{
			"buffer":0,
			"byteLength":394116,
			"byteOffset":38110764,
			"target":34963
		}
	],
	"samplers":[
		{
			"magFilter":9729,
			"minFilter":9987
		}
	],
	"buffers":[
		{
			"byteLength":38504880,
			"uri":"pom.bin"
		}
	]
}
