{
	"asset":{
		"generator":"Khronos glTF Blender I/O v3.6.28",
		"version":"2.0"
	},
	"extensionsUsed":[
		"KHR_materials_specular",
		"KHR_materials_ior"
	],
	"scene":0,
	"scenes":[
		{
			"name":"Scene",
			"nodes":[
				0
			]
		}
	],
	"nodes":[
		{
			"mesh":0,
			"name":"texturedMesh"
		}
	],
	"materials":[
		{
			"doubleSided":true,
			"extensions":{
				"KHR_materials_specular":{
					"specularColorFactor":[
						0,
						0,
						0
					]
				},
				"KHR_materials_ior":{
					"ior":1.4500000476837158
				}
			},
			"name":"1001",
			"pbrMetallicRoughness":{
				"baseColorTexture":{
					"index":0
				},
				"metallicFactor":0
			}
		}
	],
	"meshes":[
		{
			"name":"texturedMesh",
			"primitives":[
				{
					"attributes":{
						"POSITION":0,
						"NORMAL":1,
						"TEXCOORD_0":2
					},
					"indices":3,
					"material":0
				}
			]
		}
	],
	"textures":[
		{
			"sampler":0,
			"source":0
		}
	],
	"images":[
		{
			"mimeType":"image/png",
			"name":"texture_1001",
			"uri":"texture_1001.png"
		}
	],
	"accessors":[
		{
			"bufferView":0,
			"componentType":5126,
			"count":159316,
			"max":[
				1.659654974937439,
				2.0348868370056152,
				1.8253369331359863
			],
			"min":[
				-0.5294991731643677,
				-0.11615705490112305,
				-0.18600130081176758
			],
			"type":"VEC3"
		},
		{
			"bufferView":1,
			"componentType":5126,
			"count":159316,
			"type":"VEC3"
		},
		{
			"bufferView":2,
			"componentType":5126,
			"count":159316,
			"type":"VEC2"
		},
		{
			"bufferView":3,
			"componentType":5125,
			"count":159378,
			"type":"SCALAR"
		}
	],
	"bufferViews":[
		{
			"buffer":0,
			"byteLength":1911792,
			"byteOffset":0,
			"target":34962
		},
		{
			"buffer":0,
			"byteLength":1911792,
			"byteOffset":1911792,
			"target":34962
		},
		{
			"buffer":0,
			"byteLength":1274528,
			"byteOffset":3823584,
			"target":34962
		},
		{
			"buffer":0,
			"byteLength":637512,
			"byteOffset":5098112,
			"target":34963
		}
	],
	"samplers":[
		{
			"magFilter":9729,
			"minFilter":9987
		}
	],
	"buffers":[
		{
			"byteLength":5735624,
			"uri":"WaterBottleGLTFSeparated.bin"
		}
	]
}
