{
	"asset":{
		"generator":"Khronos glTF Blender I/O v4.0.44",
		"version":"2.0"
	},
	"extensionsUsed":[
		"KHR_materials_specular",
		"KHR_materials_ior"
	],
	"scene":0,
	"scenes":[
		{
			"name":"Scene",
			"nodes":[
				0
			]
		}
	],
	"nodes":[
		{
			"mesh":0,
			"name":"texturedMesh",
			"rotation":[
				0.374380886554718,
				-0.2601475119590759,
				0.1516498178243637,
				0.8770202994346619
			],
			"translation":[
				-1.662721872329712,
				2.263441801071167,
				3.659302234649658
			]
		}
	],
	"materials":[
		{
			"doubleSided":true,
			"extensions":{
				"KHR_materials_specular":{
					"specularFactor":0
				},
				"KHR_materials_ior":{
					"ior":1.4500000476837158
				}
			},
			"name":"1001",
			"pbrMetallicRoughness":{
				"baseColorTexture":{
					"index":0
				},
				"metallicFactor":0
			}
		},
		{
			"doubleSided":true,
			"extensions":{
				"KHR_materials_specular":{
					"specularFactor":0
				},
				"KHR_materials_ior":{
					"ior":1.4500000476837158
				}
			},
			"name":"1002",
			"pbrMetallicRoughness":{
				"baseColorTexture":{
					"index":1
				},
				"metallicFactor":0
			}
		},
		{
			"doubleSided":true,
			"extensions":{
				"KHR_materials_specular":{
					"specularFactor":0
				},
				"KHR_materials_ior":{
					"ior":1.4500000476837158
				}
			},
			"name":"1003",
			"pbrMetallicRoughness":{
				"baseColorTexture":{
					"index":2
				},
				"metallicFactor":0
			}
		},
		{
			"doubleSided":true,
			"extensions":{
				"KHR_materials_specular":{
					"specularFactor":0
				},
				"KHR_materials_ior":{
					"ior":1.4500000476837158
				}
			},
			"name":"1004",
			"pbrMetallicRoughness":{
				"baseColorTexture":{
					"index":3
				},
				"metallicFactor":0
			}
		},
		{
			"doubleSided":true,
			"extensions":{
				"KHR_materials_specular":{
					"specularFactor":0
				},
				"KHR_materials_ior":{
					"ior":1.4500000476837158
				}
			},
			"name":"1005",
			"pbrMetallicRoughness":{
				"baseColorTexture":{
					"index":4
				},
				"metallicFactor":0
			}
		},
		{
			"doubleSided":true,
			"extensions":{
				"KHR_materials_specular":{
					"specularFactor":0
				},
				"KHR_materials_ior":{
					"ior":1.4500000476837158
				}
			},
			"name":"1006",
			"pbrMetallicRoughness":{
				"baseColorTexture":{
					"index":5
				},
				"metallicFactor":0
			}
		},
		{
			"doubleSided":true,
			"extensions":{
				"KHR_materials_specular":{
					"specularFactor":0
				},
				"KHR_materials_ior":{
					"ior":1.4500000476837158
				}
			},
			"name":"1007",
			"pbrMetallicRoughness":{
				"baseColorTexture":{
					"index":6
				},
				"metallicFactor":0
			}
		}
	],
	"meshes":[
		{
			"name":"texturedMesh",
			"primitives":[
				{
					"attributes":{
						"POSITION":0,
						"NORMAL":1,
						"TEXCOORD_0":2
					},
					"indices":3,
					"material":0
				},
				{
					"attributes":{
						"POSITION":4,
						"NORMAL":5,
						"TEXCOORD_0":6
					},
					"indices":7,
					"material":1
				},
				{
					"attributes":{
						"POSITION":8,
						"NORMAL":9,
						"TEXCOORD_0":10
					},
					"indices":11,
					"material":2
				},
				{
					"attributes":{
						"POSITION":12,
						"NORMAL":13,
						"TEXCOORD_0":14
					},
					"indices":15,
					"material":3
				},
				{
					"attributes":{
						"POSITION":16,
						"NORMAL":17,
						"TEXCOORD_0":18
					},
					"indices":19,
					"material":4
				},
				{
					"attributes":{
						"POSITION":20,
						"NORMAL":21,
						"TEXCOORD_0":22
					},
					"indices":23,
					"material":5
				},
				{
					"attributes":{
						"POSITION":24,
						"NORMAL":25,
						"TEXCOORD_0":26
					},
					"indices":27,
					"material":6
				}
			]
		}
	],
	"textures":[
		{
			"sampler":0,
			"source":0
		},
		{
			"sampler":0,
			"source":1
		},
		{
			"sampler":0,
			"source":2
		},
		{
			"sampler":0,
			"source":3
		},
		{
			"sampler":0,
			"source":4
		},
		{
			"sampler":0,
			"source":5
		},
		{
			"sampler":0,
			"source":6
		}
	],
	"images":[
		{
			"mimeType":"image/png",
			"name":"texture_1001",
			"uri":"texture_1001.png"
		},
		{
			"mimeType":"image/png",
			"name":"texture_1002",
			"uri":"texture_1002.png"
		},
		{
			"mimeType":"image/png",
			"name":"texture_1003",
			"uri":"texture_1003.png"
		},
		{
			"mimeType":"image/png",
			"name":"texture_1004",
			"uri":"texture_1004.png"
		},
		{
			"mimeType":"image/png",
			"name":"texture_1005",
			"uri":"texture_1005.png"
		},
		{
			"mimeType":"image/png",
			"name":"texture_1006",
			"uri":"texture_1006.png"
		},
		{
			"mimeType":"image/png",
			"name":"texture_1007",
			"uri":"texture_1007.png"
		}
	],
	"accessors":[
		{
			"bufferView":0,
			"componentType":5126,
			"count":3693,
			"max":[
				2.8407928943634033,
				-1.422248125076294,
				1.3736181259155273
			],
			"min":[
				-4.193095684051514,
				-6.771663188934326,
				-3.9661457538604736
			],
			"type":"VEC3"
		},
		{
			"bufferView":1,
			"componentType":5126,
			"count":3693,
			"type":"VEC3"
		},
		{
			"bufferView":2,
			"componentType":5126,
			"count":3693,
			"type":"VEC2"
		},
		{
			"bufferView":3,
			"componentType":5123,
			"count":3693,
			"type":"SCALAR"
		},
		{
			"bufferView":4,
			"componentType":5126,
			"count":2673,
			"max":[
				2.776589870452881,
				-1.4241154193878174,
				1.4213459491729736
			],
			"min":[
				-4.177083492279053,
				-6.843817234039307,
				-3.6623167991638184
			],
			"type":"VEC3"
		},
		{
			"bufferView":5,
			"componentType":5126,
			"count":2673,
			"type":"VEC3"
		},
		{
			"bufferView":6,
			"componentType":5126,
			"count":2673,
			"type":"VEC2"
		},
		{
			"bufferView":7,
			"componentType":5123,
			"count":2673,
			"type":"SCALAR"
		},
		{
			"bufferView":8,
			"componentType":5126,
			"count":5871,
			"max":[
				2.919567823410034,
				-1.42392897605896,
				1.3896191120147705
			],
			"min":[
				-4.382009983062744,
				-6.843817234039307,
				-4.052222728729248
			],
			"type":"VEC3"
		},
		{
			"bufferView":9,
			"componentType":5126,
			"count":5871,
			"type":"VEC3"
		},
		{
			"bufferView":10,
			"componentType":5126,
			"count":5871,
			"type":"VEC2"
		},
		{
			"bufferView":11,
			"componentType":5123,
			"count":5871,
			"type":"SCALAR"
		},
		{
			"bufferView":12,
			"componentType":5126,
			"count":3138,
			"max":[
				2.9223453998565674,
				-1.42392897605896,
				1.362545132637024
			],
			"min":[
				-4.51768159866333,
				-6.8025970458984375,
				-3.894641637802124
			],
			"type":"VEC3"
		},
		{
			"bufferView":13,
			"componentType":5126,
			"count":3138,
			"type":"VEC3"
		},
		{
			"bufferView":14,
			"componentType":5126,
			"count":3138,
			"type":"VEC2"
		},
		{
			"bufferView":15,
			"componentType":5123,
			"count":3138,
			"type":"SCALAR"
		},
		{
			"bufferView":16,
			"componentType":5126,
			"count":3063,
			"max":[
				2.929589033126831,
				-1.429196834564209,
				1.7092432975769043
			],
			"min":[
				-4.51768159866333,
				-6.744998455047607,
				-3.75894832611084
			],
			"type":"VEC3"
		},
		{
			"bufferView":17,
			"componentType":5126,
			"count":3063,
			"type":"VEC3"
		},
		{
			"bufferView":18,
			"componentType":5126,
			"count":3063,
			"type":"VEC2"
		},
		{
			"bufferView":19,
			"componentType":5123,
			"count":3063,
			"type":"SCALAR"
		},
		{
			"bufferView":20,
			"componentType":5126,
			"count":4897,
			"max":[
				2.9149067401885986,
				-1.422248125076294,
				1.642816185951233
			],
			"min":[
				-4.447425842285156,
				-6.824256420135498,
				-3.9976258277893066
			],
			"type":"VEC3"
		},
		{
			"bufferView":21,
			"componentType":5126,
			"count":4897,
			"type":"VEC3"
		},
		{
			"bufferView":22,
			"componentType":5126,
			"count":4897,
			"type":"VEC2"
		},
		{
			"bufferView":23,
			"componentType":5123,
			"count":4899,
			"type":"SCALAR"
		},
		{
			"bufferView":24,
			"componentType":5126,
			"count":3405,
			"max":[
				2.919567823410034,
				-1.429196834564209,
				1.5427029132843018
			],
			"min":[
				-4.366565227508545,
				-6.744998455047607,
				-4.052222728729248
			],
			"type":"VEC3"
		},
		{
			"bufferView":25,
			"componentType":5126,
			"count":3405,
			"type":"VEC3"
		},
		{
			"bufferView":26,
			"componentType":5126,
			"count":3405,
			"type":"VEC2"
		},
		{
			"bufferView":27,
			"componentType":5123,
			"count":3405,
			"type":"SCALAR"
		}
	],
	"bufferViews":[
		{
			"buffer":0,
			"byteLength":44316,
			"byteOffset":0,
			"target":34962
		},
		{
			"buffer":0,
			"byteLength":44316,
			"byteOffset":44316,
			"target":34962
		},
		{
			"buffer":0,
			"byteLength":29544,
			"byteOffset":88632,
			"target":34962
		},
		{
			"buffer":0,
			"byteLength":7386,
			"byteOffset":118176,
			"target":34963
		},
		{
			"buffer":0,
			"byteLength":32076,
			"byteOffset":125564,
			"target":34962
		},
		{
			"buffer":0,
			"byteLength":32076,
			"byteOffset":157640,
			"target":34962
		},
		{
			"buffer":0,
			"byteLength":21384,
			"byteOffset":189716,
			"target":34962
		},
		{
			"buffer":0,
			"byteLength":5346,
			"byteOffset":211100,
			"target":34963
		},
		{
			"buffer":0,
			"byteLength":70452,
			"byteOffset":216448,
			"target":34962
		},
		{
			"buffer":0,
			"byteLength":70452,
			"byteOffset":286900,
			"target":34962
		},
		{
			"buffer":0,
			"byteLength":46968,
			"byteOffset":357352,
			"target":34962
		},
		{
			"buffer":0,
			"byteLength":11742,
			"byteOffset":404320,
			"target":34963
		},
		{
			"buffer":0,
			"byteLength":37656,
			"byteOffset":416064,
			"target":34962
		},
		{
			"buffer":0,
			"byteLength":37656,
			"byteOffset":453720,
			"target":34962
		},
		{
			"buffer":0,
			"byteLength":25104,
			"byteOffset":491376,
			"target":34962
		},
		{
			"buffer":0,
			"byteLength":6276,
			"byteOffset":516480,
			"target":34963
		},
		{
			"buffer":0,
			"byteLength":36756,
			"byteOffset":522756,
			"target":34962
		},
		{
			"buffer":0,
			"byteLength":36756,
			"byteOffset":559512,
			"target":34962
		},
		{
			"buffer":0,
			"byteLength":24504,
			"byteOffset":596268,
			"target":34962
		},
		{
			"buffer":0,
			"byteLength":6126,
			"byteOffset":620772,
			"target":34963
		},
		{
			"buffer":0,
			"byteLength":58764,
			"byteOffset":626900,
			"target":34962
		},
		{
			"buffer":0,
			"byteLength":58764,
			"byteOffset":685664,
			"target":34962
		},
		{
			"buffer":0,
			"byteLength":39176,
			"byteOffset":744428,
			"target":34962
		},
		{
			"buffer":0,
			"byteLength":9798,
			"byteOffset":783604,
			"target":34963
		},
		{
			"buffer":0,
			"byteLength":40860,
			"byteOffset":793404,
			"target":34962
		},
		{
			"buffer":0,
			"byteLength":40860,
			"byteOffset":834264,
			"target":34962
		},
		{
			"buffer":0,
			"byteLength":27240,
			"byteOffset":875124,
			"target":34962
		},
		{
			"buffer":0,
			"byteLength":6810,
			"byteOffset":902364,
			"target":34963
		}
	],
	"samplers":[
		{
			"magFilter":9729,
			"minFilter":9987
		}
	],
	"buffers":[
		{
			"byteLength":909176,
			"uri":"fruit2.bin"
		}
	]
}
